<svg width="1728" height="860" viewBox="0 0 1728 860" fill="none" xmlns="http://www.w3.org/2000/svg">
<g filter="url(#filter0_d_2_398)">
<rect x="4" width="1720" height="852" rx="59" fill="#F4F6F5"/>
<rect x="4.5" y="0.5" width="1719" height="851" rx="58.5" stroke="black"/>
</g>
<rect x="97.5225" y="318.865" width="495.785" height="117.55" transform="rotate(-2 97.5225 318.865)" fill="#EBD96B"/>
<rect x="86" y="84.2192" width="464.743" height="112.14" transform="rotate(-2 86 84.2192)" fill="white"/>
<path d="M149.112 154.872H169.656V171H127.8V103.032H149.112V154.872ZM197.675 120.024V128.376H218.795V144.408H197.675V154.008H221.675V171H176.363V103.032H221.675V120.024H197.675ZM283.082 103.032V119.928H265.034V171H243.722V119.928H225.866V103.032H283.082ZM294.431 103.032H315.551L304.223 131.352H290.207L294.431 103.032ZM351.736 171.672C343.608 171.672 336.888 169.784 331.576 166.008C326.328 162.168 323.48 156.568 323.032 149.208H345.688C346.008 153.112 347.736 155.064 350.872 155.064C352.024 155.064 352.984 154.808 353.752 154.296C354.584 153.72 355 152.856 355 151.704C355 150.104 354.136 148.824 352.408 147.864C350.68 146.84 347.992 145.688 344.344 144.408C339.992 142.872 336.376 141.368 333.496 139.896C330.68 138.424 328.248 136.28 326.2 133.464C324.152 130.648 323.16 127.032 323.224 122.616C323.224 118.2 324.344 114.456 326.584 111.384C328.888 108.248 331.992 105.88 335.896 104.28C339.864 102.68 344.312 101.88 349.24 101.88C357.56 101.88 364.152 103.8 369.016 107.64C373.944 111.48 376.536 116.888 376.792 123.864H353.848C353.784 121.944 353.304 120.568 352.408 119.736C351.512 118.904 350.424 118.488 349.144 118.488C348.248 118.488 347.512 118.808 346.936 119.448C346.36 120.024 346.072 120.856 346.072 121.944C346.072 123.48 346.904 124.76 348.568 125.784C350.296 126.744 353.016 127.928 356.728 129.336C361.016 130.936 364.536 132.472 367.288 133.944C370.104 135.416 372.536 137.464 374.584 140.088C376.632 142.712 377.656 146.008 377.656 149.976C377.656 154.136 376.632 157.88 374.584 161.208C372.536 164.472 369.56 167.032 365.656 168.888C361.752 170.744 357.112 171.672 351.736 171.672ZM149.112 240.024V248.376H170.232V264.408H149.112V274.008H173.112V291H127.8V223.032H173.112V240.024H149.112ZM224.44 291L211.96 273.336L201.592 291H177.304L199.672 255.96L176.344 223.032H201.592L213.592 240.024L223.576 223.032H247.864L225.88 257.4L249.688 291H224.44ZM310.04 246.36C310.04 250.648 309.048 254.552 307.064 258.072C305.08 261.528 302.136 264.28 298.232 266.328C294.392 268.376 289.72 269.4 284.216 269.4H275.768V291H254.456V223.032H284.216C292.536 223.032 298.904 225.144 303.32 229.368C307.8 233.592 310.04 239.256 310.04 246.36ZM281.816 252.6C286.232 252.6 288.44 250.52 288.44 246.36C288.44 242.2 286.232 240.12 281.816 240.12H275.768V252.6H281.816ZM338.112 274.872H358.656V291H316.8V223.032H338.112V274.872ZM398.483 291.672C392.083 291.672 386.195 290.168 380.819 287.16C375.507 284.152 371.283 279.992 368.147 274.68C365.011 269.368 363.443 263.384 363.443 256.728C363.443 250.072 365.011 244.088 368.147 238.776C371.283 233.464 375.507 229.336 380.819 226.392C386.195 223.384 392.083 221.88 398.483 221.88C404.883 221.88 410.739 223.384 416.051 226.392C421.363 229.336 425.555 233.464 428.627 238.776C431.763 244.088 433.331 250.072 433.331 256.728C433.331 263.384 431.763 269.368 428.627 274.68C425.555 279.992 421.331 284.152 415.955 287.16C410.643 290.168 404.819 291.672 398.483 291.672ZM398.483 271.8C402.707 271.8 405.971 270.456 408.275 267.768C410.579 265.016 411.731 261.336 411.731 256.728C411.731 252.056 410.579 248.376 408.275 245.688C405.971 242.936 402.707 241.56 398.483 241.56C394.195 241.56 390.899 242.936 388.595 245.688C386.291 248.376 385.139 252.056 385.139 256.728C385.139 261.336 386.291 265.016 388.595 267.768C390.899 270.456 394.195 271.8 398.483 271.8ZM475.195 291L462.427 266.616H462.331V291H441.019V223.032H472.699C478.203 223.032 482.907 224.024 486.811 226.008C490.715 227.928 493.627 230.584 495.547 233.976C497.531 237.304 498.523 241.08 498.523 245.304C498.523 249.848 497.243 253.88 494.683 257.4C492.187 260.92 488.571 263.448 483.835 264.984L498.619 291H475.195ZM462.331 252.408H470.779C472.827 252.408 474.363 251.96 475.387 251.064C476.411 250.104 476.923 248.632 476.923 246.648C476.923 244.856 476.379 243.448 475.291 242.424C474.267 241.4 472.763 240.888 470.779 240.888H462.331V252.408ZM526.643 240.024V248.376H547.763V264.408H526.643V274.008H550.643V291H505.331V223.032H550.643V240.024H526.643ZM148.632 343.032V381.336C148.632 384.472 149.304 386.968 150.648 388.824C152.056 390.616 154.296 391.512 157.368 391.512C160.44 391.512 162.712 390.616 164.184 388.824C165.656 386.968 166.392 384.472 166.392 381.336V343.032H187.608V381.336C187.608 387.8 186.264 393.336 183.576 397.944C180.888 402.488 177.208 405.912 172.536 408.216C167.864 410.52 162.648 411.672 156.888 411.672C151.128 411.672 146.008 410.52 141.528 408.216C137.112 405.912 133.656 402.488 131.16 397.944C128.664 393.4 127.416 387.864 127.416 381.336V343.032H148.632ZM261.984 411H240.672L218.112 376.824V411H196.8V343.032H218.112L240.672 377.784V343.032H261.984V411ZM292.925 343.032V411H271.613V343.032H292.925ZM347.286 422.04L340.758 411.288C339.286 411.544 337.59 411.672 335.67 411.672C329.27 411.672 323.382 410.168 318.006 407.16C312.694 404.152 308.47 399.992 305.334 394.68C302.198 389.368 300.63 383.384 300.63 376.728C300.63 370.072 302.198 364.088 305.334 358.776C308.47 353.464 312.694 349.336 318.006 346.392C323.382 343.384 329.27 341.88 335.67 341.88C342.07 341.88 347.926 343.384 353.238 346.392C358.55 349.336 362.742 353.464 365.814 358.776C368.95 364.088 370.518 370.072 370.518 376.728C370.518 382.168 369.462 387.192 367.35 391.8C365.238 396.344 362.326 400.216 358.614 403.416L372.438 422.04H347.286ZM322.326 376.728C322.326 381.336 323.478 385.016 325.782 387.768C328.086 390.456 331.382 391.8 335.67 391.8C339.894 391.8 343.158 390.456 345.462 387.768C347.766 385.016 348.918 381.336 348.918 376.728C348.918 372.056 347.766 368.376 345.462 365.688C343.158 362.936 339.894 361.56 335.67 361.56C331.382 361.56 328.086 362.936 325.782 365.688C323.478 368.376 322.326 372.056 322.326 376.728ZM399.038 343.032V381.336C399.038 384.472 399.71 386.968 401.054 388.824C402.462 390.616 404.702 391.512 407.774 391.512C410.846 391.512 413.118 390.616 414.59 388.824C416.062 386.968 416.798 384.472 416.798 381.336V343.032H438.014V381.336C438.014 387.8 436.67 393.336 433.982 397.944C431.294 402.488 427.614 405.912 422.942 408.216C418.27 410.52 413.054 411.672 407.294 411.672C401.534 411.672 396.414 410.52 391.934 408.216C387.518 405.912 384.062 402.488 381.566 397.944C379.07 393.4 377.822 387.864 377.822 381.336V343.032H399.038ZM468.518 360.024V368.376H489.638V384.408H468.518V394.008H492.518V411H447.206V343.032H492.518V360.024H468.518ZM125.88 496.92C125.88 490.2 127.224 484.216 129.912 478.968C132.664 473.72 136.568 469.656 141.624 466.776C146.68 463.832 152.632 462.36 159.48 462.36C165.368 462.36 170.616 463.48 175.224 465.72C179.896 467.896 183.672 471 186.552 475.032C189.496 479.064 191.448 483.768 192.408 489.144H169.944C168.92 486.904 167.448 485.176 165.528 483.96C163.672 482.68 161.528 482.04 159.096 482.04C155.512 482.04 152.664 483.384 150.552 486.072C148.504 488.76 147.48 492.376 147.48 496.92C147.48 501.464 148.504 505.08 150.552 507.768C152.664 510.456 155.512 511.8 159.096 511.8C161.528 511.8 163.672 511.192 165.528 509.976C167.448 508.696 168.92 506.936 169.944 504.696H192.408C191.448 510.072 189.496 514.776 186.552 518.808C183.672 522.84 179.896 525.976 175.224 528.216C170.616 530.392 165.368 531.48 159.48 531.48C152.632 531.48 146.68 530.04 141.624 527.16C136.568 524.216 132.664 520.12 129.912 514.872C127.224 509.624 125.88 503.64 125.88 496.92ZM221.393 514.872H241.937V531H200.081V463.032H221.393V514.872ZM281.764 531.672C275.364 531.672 269.476 530.168 264.1 527.16C258.788 524.152 254.564 519.992 251.428 514.68C248.292 509.368 246.724 503.384 246.724 496.728C246.724 490.072 248.292 484.088 251.428 478.776C254.564 473.464 258.788 469.336 264.1 466.392C269.476 463.384 275.364 461.88 281.764 461.88C288.164 461.88 294.02 463.384 299.332 466.392C304.644 469.336 308.836 473.464 311.908 478.776C315.044 484.088 316.612 490.072 316.612 496.728C316.612 503.384 315.044 509.368 311.908 514.68C308.836 519.992 304.612 524.152 299.236 527.16C293.924 530.168 288.1 531.672 281.764 531.672ZM281.764 511.8C285.988 511.8 289.252 510.456 291.556 507.768C293.86 505.016 295.012 501.336 295.012 496.728C295.012 492.056 293.86 488.376 291.556 485.688C289.252 482.936 285.988 481.56 281.764 481.56C277.476 481.56 274.18 482.936 271.876 485.688C269.572 488.376 268.42 492.056 268.42 496.728C268.42 501.336 269.572 505.016 271.876 507.768C274.18 510.456 277.476 511.8 281.764 511.8ZM377.676 463.032V479.928H359.628V531H338.316V479.928H320.46V463.032H377.676ZM446.336 463.032V531H425.024V504.504H404.768V531H383.456V463.032H404.768V487.512H425.024V463.032H446.336ZM477.237 480.024V488.376H498.357V504.408H477.237V514.008H501.237V531H455.925V463.032H501.237V480.024H477.237ZM535.861 531.672C527.733 531.672 521.013 529.784 515.701 526.008C510.453 522.168 507.605 516.568 507.157 509.208H529.813C530.133 513.112 531.861 515.064 534.997 515.064C536.149 515.064 537.109 514.808 537.877 514.296C538.709 513.72 539.125 512.856 539.125 511.704C539.125 510.104 538.261 508.824 536.533 507.864C534.805 506.84 532.117 505.688 528.469 504.408C524.117 502.872 520.501 501.368 517.621 499.896C514.805 498.424 512.373 496.28 510.325 493.464C508.277 490.648 507.285 487.032 507.349 482.616C507.349 478.2 508.469 474.456 510.709 471.384C513.013 468.248 516.117 465.88 520.021 464.28C523.989 462.68 528.437 461.88 533.365 461.88C541.685 461.88 548.277 463.8 553.141 467.64C558.069 471.48 560.661 476.888 560.917 483.864H537.973C537.909 481.944 537.429 480.568 536.533 479.736C535.637 478.904 534.549 478.488 533.269 478.488C532.373 478.488 531.637 478.808 531.061 479.448C530.485 480.024 530.197 480.856 530.197 481.944C530.197 483.48 531.029 484.76 532.693 485.784C534.421 486.744 537.141 487.928 540.853 489.336C545.141 490.936 548.661 492.472 551.413 493.944C554.229 495.416 556.661 497.464 558.709 500.088C560.757 502.712 561.781 506.008 561.781 509.976C561.781 514.136 560.757 517.88 558.709 521.208C556.661 524.472 553.685 527.032 549.781 528.888C545.877 530.744 541.237 531.672 535.861 531.672ZM579.829 531.768C576.117 531.768 573.141 530.776 570.901 528.792C568.661 526.808 567.541 524.312 567.541 521.304C567.541 518.232 568.661 515.704 570.901 513.72C573.141 511.672 576.117 510.648 579.829 510.648C583.477 510.648 586.421 511.672 588.661 513.72C590.901 515.704 592.021 518.232 592.021 521.304C592.021 524.312 590.901 526.808 588.661 528.792C586.421 530.776 583.477 531.768 579.829 531.768Z" fill="black"/>
<path d="M128.376 622.632H136.184V625H125.464V602.696H128.376V622.632ZM139.18 604.616C138.626 604.616 138.156 604.424 137.772 604.04C137.388 603.656 137.196 603.187 137.196 602.632C137.196 602.077 137.388 601.608 137.772 601.224C138.156 600.84 138.626 600.648 139.18 600.648C139.714 600.648 140.162 600.84 140.524 601.224C140.909 601.608 141.101 602.077 141.101 602.632C141.101 603.187 140.909 603.656 140.524 604.04C140.162 604.424 139.714 604.616 139.18 604.616ZM140.589 607.464V625H137.676V607.464H140.589ZM150.479 622.312L155.92 607.464H159.024L152.143 625H148.751L141.871 607.464H145.007L150.479 622.312ZM176.289 615.56C176.289 616.115 176.257 616.701 176.193 617.32H162.177C162.284 619.048 162.87 620.403 163.937 621.384C165.025 622.344 166.337 622.824 167.873 622.824C169.132 622.824 170.177 622.536 171.009 621.96C171.862 621.363 172.46 620.573 172.801 619.592H175.937C175.468 621.277 174.529 622.653 173.121 623.72C171.713 624.765 169.964 625.288 167.873 625.288C166.209 625.288 164.716 624.915 163.393 624.168C162.092 623.421 161.068 622.365 160.321 621C159.574 619.613 159.201 618.013 159.201 616.2C159.201 614.387 159.564 612.797 160.289 611.432C161.014 610.067 162.028 609.021 163.329 608.296C164.652 607.549 166.166 607.176 167.873 607.176C169.537 607.176 171.009 607.539 172.289 608.264C173.569 608.989 174.55 609.992 175.233 611.272C175.937 612.531 176.289 613.96 176.289 615.56ZM173.281 614.952C173.281 613.843 173.036 612.893 172.545 612.104C172.054 611.293 171.382 610.685 170.529 610.28C169.697 609.853 168.769 609.64 167.745 609.64C166.273 609.64 165.014 610.109 163.969 611.048C162.945 611.987 162.358 613.288 162.209 614.952H173.281ZM192.6 609.864H188.92V625H186.008V609.864H183.736V607.464H186.008V606.216C186.008 604.253 186.509 602.824 187.512 601.928C188.536 601.011 190.168 600.552 192.408 600.552V602.984C191.128 602.984 190.221 603.24 189.688 603.752C189.176 604.243 188.92 605.064 188.92 606.216V607.464H192.6V609.864ZM202.043 625.288C200.401 625.288 198.907 624.915 197.563 624.168C196.241 623.421 195.195 622.365 194.427 621C193.681 619.613 193.307 618.013 193.307 616.2C193.307 614.408 193.691 612.829 194.459 611.464C195.249 610.077 196.315 609.021 197.659 608.296C199.003 607.549 200.507 607.176 202.171 607.176C203.835 607.176 205.339 607.549 206.683 608.296C208.027 609.021 209.083 610.067 209.851 611.432C210.641 612.797 211.035 614.387 211.035 616.2C211.035 618.013 210.63 619.613 209.819 621C209.03 622.365 207.953 623.421 206.587 624.168C205.222 624.915 203.707 625.288 202.043 625.288ZM202.043 622.728C203.089 622.728 204.07 622.483 204.987 621.992C205.905 621.501 206.641 620.765 207.195 619.784C207.771 618.803 208.059 617.608 208.059 616.2C208.059 614.792 207.782 613.597 207.227 612.616C206.673 611.635 205.947 610.909 205.051 610.44C204.155 609.949 203.185 609.704 202.139 609.704C201.073 609.704 200.091 609.949 199.195 610.44C198.321 610.909 197.617 611.635 197.083 612.616C196.55 613.597 196.283 614.792 196.283 616.2C196.283 617.629 196.539 618.835 197.051 619.816C197.585 620.797 198.289 621.533 199.163 622.024C200.038 622.493 200.998 622.728 202.043 622.728ZM216.176 610.312C216.688 609.309 217.413 608.531 218.352 607.976C219.312 607.421 220.475 607.144 221.84 607.144V610.152H221.072C217.808 610.152 216.176 611.923 216.176 615.464V625H213.264V607.464H216.176V610.312ZM233.445 602.696V625H230.533V602.696H233.445ZM245.352 607.144C247.485 607.144 249.213 607.795 250.536 609.096C251.858 610.376 252.52 612.232 252.52 614.664V625H249.64V615.08C249.64 613.331 249.202 611.997 248.328 611.08C247.453 610.141 246.258 609.672 244.744 609.672C243.208 609.672 241.981 610.152 241.064 611.112C240.168 612.072 239.72 613.469 239.72 615.304V625H236.808V607.464H239.72V609.96C240.296 609.064 241.074 608.371 242.056 607.88C243.058 607.389 244.157 607.144 245.352 607.144ZM262.812 609.864H259.132V625H256.22V609.864H253.948V607.464H256.22V606.216C256.22 604.253 256.722 602.824 257.724 601.928C258.748 601.011 260.38 600.552 262.62 600.552V602.984C261.34 602.984 260.434 603.24 259.9 603.752C259.388 604.243 259.132 605.064 259.132 606.216V607.464H262.812V609.864ZM267.52 601.32V625H264.608V601.32H267.52ZM286.435 607.464V625H283.523V622.408C282.968 623.304 282.189 624.008 281.187 624.52C280.205 625.011 279.117 625.256 277.923 625.256C276.557 625.256 275.331 624.979 274.243 624.424C273.155 623.848 272.291 622.995 271.651 621.864C271.032 620.733 270.723 619.357 270.723 617.736V607.464H273.603V617.352C273.603 619.08 274.04 620.413 274.915 621.352C275.789 622.269 276.984 622.728 278.499 622.728C280.056 622.728 281.283 622.248 282.179 621.288C283.075 620.328 283.523 618.931 283.523 617.096V607.464H286.435ZM305.752 615.56C305.752 616.115 305.72 616.701 305.656 617.32H291.64C291.746 619.048 292.333 620.403 293.4 621.384C294.488 622.344 295.8 622.824 297.336 622.824C298.594 622.824 299.64 622.536 300.472 621.96C301.325 621.363 301.922 620.573 302.264 619.592H305.4C304.93 621.277 303.992 622.653 302.584 623.72C301.176 624.765 299.426 625.288 297.336 625.288C295.672 625.288 294.178 624.915 292.856 624.168C291.554 623.421 290.53 622.365 289.784 621C289.037 619.613 288.664 618.013 288.664 616.2C288.664 614.387 289.026 612.797 289.752 611.432C290.477 610.067 291.49 609.021 292.792 608.296C294.114 607.549 295.629 607.176 297.336 607.176C299 607.176 300.472 607.539 301.752 608.264C303.032 608.989 304.013 609.992 304.696 611.272C305.4 612.531 305.752 613.96 305.752 615.56ZM302.744 614.952C302.744 613.843 302.498 612.893 302.008 612.104C301.517 611.293 300.845 610.685 299.992 610.28C299.16 609.853 298.232 609.64 297.208 609.64C295.736 609.64 294.477 610.109 293.432 611.048C292.408 611.987 291.821 613.288 291.672 614.952H302.744ZM316.539 607.144C318.673 607.144 320.401 607.795 321.723 609.096C323.046 610.376 323.707 612.232 323.707 614.664V625H320.827V615.08C320.827 613.331 320.39 611.997 319.515 611.08C318.641 610.141 317.446 609.672 315.931 609.672C314.395 609.672 313.169 610.152 312.251 611.112C311.355 612.072 310.907 613.469 310.907 615.304V625H307.995V607.464H310.907V609.96C311.483 609.064 312.262 608.371 313.243 607.88C314.246 607.389 315.345 607.144 316.539 607.144ZM330.416 609.864V620.2C330.416 621.053 330.597 621.661 330.96 622.024C331.323 622.365 331.952 622.536 332.848 622.536H334.992V625H332.368C330.747 625 329.531 624.627 328.72 623.88C327.909 623.133 327.504 621.907 327.504 620.2V609.864H325.232V607.464H327.504V603.048H330.416V607.464H334.992V609.864H330.416ZM338.424 604.616C337.87 604.616 337.4 604.424 337.016 604.04C336.632 603.656 336.44 603.187 336.44 602.632C336.44 602.077 336.632 601.608 337.016 601.224C337.4 600.84 337.87 600.648 338.424 600.648C338.958 600.648 339.406 600.84 339.768 601.224C340.152 601.608 340.344 602.077 340.344 602.632C340.344 603.187 340.152 603.656 339.768 604.04C339.406 604.424 338.958 604.616 338.424 604.616ZM339.832 607.464V625H336.92V607.464H339.832ZM342.107 616.168C342.107 614.376 342.47 612.808 343.195 611.464C343.921 610.099 344.913 609.043 346.171 608.296C347.451 607.549 348.87 607.176 350.427 607.176C351.963 607.176 353.297 607.507 354.427 608.168C355.558 608.829 356.401 609.661 356.955 610.664V607.464H359.899V625H356.955V621.736C356.379 622.76 355.515 623.613 354.363 624.296C353.233 624.957 351.91 625.288 350.395 625.288C348.838 625.288 347.43 624.904 346.171 624.136C344.913 623.368 343.921 622.291 343.195 620.904C342.47 619.517 342.107 617.939 342.107 616.168ZM356.955 616.2C356.955 614.877 356.689 613.725 356.155 612.744C355.622 611.763 354.897 611.016 353.979 610.504C353.083 609.971 352.091 609.704 351.003 609.704C349.915 609.704 348.923 609.96 348.027 610.472C347.131 610.984 346.417 611.731 345.883 612.712C345.35 613.693 345.083 614.845 345.083 616.168C345.083 617.512 345.35 618.685 345.883 619.688C346.417 620.669 347.131 621.427 348.027 621.96C348.923 622.472 349.915 622.728 351.003 622.728C352.091 622.728 353.083 622.472 353.979 621.96C354.897 621.427 355.622 620.669 356.155 619.688C356.689 618.685 356.955 617.523 356.955 616.2ZM366.132 601.32V625H363.22V601.32H366.132ZM375.338 616.168C375.338 614.376 375.701 612.808 376.426 611.464C377.152 610.099 378.144 609.043 379.402 608.296C380.682 607.549 382.101 607.176 383.658 607.176C385.194 607.176 386.528 607.507 387.658 608.168C388.789 608.829 389.632 609.661 390.186 610.664V607.464H393.13V625H390.186V621.736C389.61 622.76 388.746 623.613 387.594 624.296C386.464 624.957 385.141 625.288 383.626 625.288C382.069 625.288 380.661 624.904 379.402 624.136C378.144 623.368 377.152 622.291 376.426 620.904C375.701 619.517 375.338 617.939 375.338 616.168ZM390.186 616.2C390.186 614.877 389.92 613.725 389.386 612.744C388.853 611.763 388.128 611.016 387.21 610.504C386.314 609.971 385.322 609.704 384.234 609.704C383.146 609.704 382.154 609.96 381.258 610.472C380.362 610.984 379.648 611.731 379.114 612.712C378.581 613.693 378.314 614.845 378.314 616.168C378.314 617.512 378.581 618.685 379.114 619.688C379.648 620.669 380.362 621.427 381.258 621.96C382.154 622.472 383.146 622.728 384.234 622.728C385.322 622.728 386.314 622.472 387.21 621.96C388.128 621.427 388.853 620.669 389.386 619.688C389.92 618.685 390.186 617.523 390.186 616.2ZM404.995 607.144C407.129 607.144 408.857 607.795 410.179 609.096C411.502 610.376 412.163 612.232 412.163 614.664V625H409.283V615.08C409.283 613.331 408.846 611.997 407.971 611.08C407.097 610.141 405.902 609.672 404.387 609.672C402.851 609.672 401.625 610.152 400.707 611.112C399.811 612.072 399.363 613.469 399.363 615.304V625H396.451V607.464H399.363V609.96C399.939 609.064 400.718 608.371 401.699 607.88C402.702 607.389 403.801 607.144 404.995 607.144ZM414.232 616.168C414.232 614.376 414.595 612.808 415.32 611.464C416.046 610.099 417.038 609.043 418.296 608.296C419.576 607.549 421.006 607.176 422.584 607.176C423.95 607.176 425.219 607.496 426.392 608.136C427.566 608.755 428.462 609.576 429.08 610.6V601.32H432.024V625H429.08V621.704C428.504 622.749 427.651 623.613 426.52 624.296C425.39 624.957 424.067 625.288 422.552 625.288C420.995 625.288 419.576 624.904 418.296 624.136C417.038 623.368 416.046 622.291 415.32 620.904C414.595 619.517 414.232 617.939 414.232 616.168ZM429.08 616.2C429.08 614.877 428.814 613.725 428.28 612.744C427.747 611.763 427.022 611.016 426.104 610.504C425.208 609.971 424.216 609.704 423.128 609.704C422.04 609.704 421.048 609.96 420.152 610.472C419.256 610.984 418.542 611.731 418.008 612.712C417.475 613.693 417.208 614.845 417.208 616.168C417.208 617.512 417.475 618.685 418.008 619.688C418.542 620.669 419.256 621.427 420.152 621.96C421.048 622.472 422.04 622.728 423.128 622.728C424.216 622.728 425.208 622.472 426.104 621.96C427.022 621.427 427.747 620.669 428.28 619.688C428.814 618.685 429.08 617.523 429.08 616.2ZM445.189 602.696V625H442.277V602.696H445.189ZM457.095 607.144C459.229 607.144 460.957 607.795 462.279 609.096C463.602 610.376 464.263 612.232 464.263 614.664V625H461.383V615.08C461.383 613.331 460.946 611.997 460.071 611.08C459.197 610.141 458.002 609.672 456.487 609.672C454.951 609.672 453.725 610.152 452.807 611.112C451.911 612.072 451.463 613.469 451.463 615.304V625H448.551V607.464H451.463V609.96C452.039 609.064 452.818 608.371 453.799 607.88C454.802 607.389 455.901 607.144 457.095 607.144ZM475.964 607.144C478.098 607.144 479.826 607.795 481.148 609.096C482.471 610.376 483.132 612.232 483.132 614.664V625H480.252V615.08C480.252 613.331 479.815 611.997 478.94 611.08C478.066 610.141 476.871 609.672 475.356 609.672C473.82 609.672 472.594 610.152 471.676 611.112C470.78 612.072 470.332 613.469 470.332 615.304V625H467.42V607.464H470.332V609.96C470.908 609.064 471.687 608.371 472.668 607.88C473.671 607.389 474.77 607.144 475.964 607.144ZM493.937 625.288C492.294 625.288 490.801 624.915 489.457 624.168C488.134 623.421 487.089 622.365 486.321 621C485.574 619.613 485.201 618.013 485.201 616.2C485.201 614.408 485.585 612.829 486.353 611.464C487.142 610.077 488.209 609.021 489.553 608.296C490.897 607.549 492.401 607.176 494.065 607.176C495.729 607.176 497.233 607.549 498.577 608.296C499.921 609.021 500.977 610.067 501.745 611.432C502.534 612.797 502.929 614.387 502.929 616.2C502.929 618.013 502.524 619.613 501.713 621C500.924 622.365 499.846 623.421 498.481 624.168C497.116 624.915 495.601 625.288 493.937 625.288ZM493.937 622.728C494.982 622.728 495.964 622.483 496.881 621.992C497.798 621.501 498.534 620.765 499.089 619.784C499.665 618.803 499.953 617.608 499.953 616.2C499.953 614.792 499.676 613.597 499.121 612.616C498.566 611.635 497.841 610.909 496.945 610.44C496.049 609.949 495.078 609.704 494.033 609.704C492.966 609.704 491.985 609.949 491.089 610.44C490.214 610.909 489.51 611.635 488.977 612.616C488.444 613.597 488.177 614.792 488.177 616.2C488.177 617.629 488.433 618.835 488.945 619.816C489.478 620.797 490.182 621.533 491.057 622.024C491.932 622.493 492.892 622.728 493.937 622.728ZM511.686 622.312L517.126 607.464H520.23L513.35 625H509.958L503.078 607.464H506.214L511.686 622.312ZM520.407 616.168C520.407 614.376 520.77 612.808 521.495 611.464C522.221 610.099 523.213 609.043 524.471 608.296C525.751 607.549 527.17 607.176 528.727 607.176C530.263 607.176 531.597 607.507 532.727 608.168C533.858 608.829 534.701 609.661 535.255 610.664V607.464H538.199V625H535.255V621.736C534.679 622.76 533.815 623.613 532.663 624.296C531.533 624.957 530.21 625.288 528.695 625.288C527.138 625.288 525.73 624.904 524.471 624.136C523.213 623.368 522.221 622.291 521.495 620.904C520.77 619.517 520.407 617.939 520.407 616.168ZM535.255 616.2C535.255 614.877 534.989 613.725 534.455 612.744C533.922 611.763 533.197 611.016 532.279 610.504C531.383 609.971 530.391 609.704 529.303 609.704C528.215 609.704 527.223 609.96 526.327 610.472C525.431 610.984 524.717 611.731 524.183 612.712C523.65 613.693 523.383 614.845 523.383 616.168C523.383 617.512 523.65 618.685 524.183 619.688C524.717 620.669 525.431 621.427 526.327 621.96C527.223 622.472 528.215 622.728 529.303 622.728C530.391 622.728 531.383 622.472 532.279 621.96C533.197 621.427 533.922 620.669 534.455 619.688C534.989 618.685 535.255 617.523 535.255 616.2ZM545.072 609.864V620.2C545.072 621.053 545.254 621.661 545.616 622.024C545.979 622.365 546.608 622.536 547.504 622.536H549.648V625H547.024C545.403 625 544.187 624.627 543.376 623.88C542.566 623.133 542.16 621.907 542.16 620.2V609.864H539.888V607.464H542.16V603.048H545.072V607.464H549.648V609.864H545.072ZM553.08 604.616C552.526 604.616 552.056 604.424 551.672 604.04C551.288 603.656 551.096 603.187 551.096 602.632C551.096 602.077 551.288 601.608 551.672 601.224C552.056 600.84 552.526 600.648 553.08 600.648C553.614 600.648 554.062 600.84 554.424 601.224C554.808 601.608 555 602.077 555 602.632C555 603.187 554.808 603.656 554.424 604.04C554.062 604.424 553.614 604.616 553.08 604.616ZM554.488 607.464V625H551.576V607.464H554.488ZM564.38 622.312L569.82 607.464H572.924L566.044 625H562.652L555.772 607.464H558.908L564.38 622.312ZM590.189 615.56C590.189 616.115 590.157 616.701 590.093 617.32H576.077C576.184 619.048 576.77 620.403 577.837 621.384C578.925 622.344 580.237 622.824 581.773 622.824C583.032 622.824 584.077 622.536 584.909 621.96C585.762 621.363 586.36 620.573 586.701 619.592H589.837C589.368 621.277 588.429 622.653 587.021 623.72C585.613 624.765 583.864 625.288 581.773 625.288C580.109 625.288 578.616 624.915 577.293 624.168C575.992 623.421 574.968 622.365 574.221 621C573.474 619.613 573.101 618.013 573.101 616.2C573.101 614.387 573.464 612.797 574.189 611.432C574.914 610.067 575.928 609.021 577.229 608.296C578.552 607.549 580.066 607.176 581.773 607.176C583.437 607.176 584.909 607.539 586.189 608.264C587.469 608.989 588.45 609.992 589.133 611.272C589.837 612.531 590.189 613.96 590.189 615.56ZM587.181 614.952C587.181 613.843 586.936 612.893 586.445 612.104C585.954 611.293 585.282 610.685 584.429 610.28C583.597 609.853 582.669 609.64 581.645 609.64C580.173 609.64 578.914 610.109 577.869 611.048C576.845 611.987 576.258 613.288 576.109 614.952H587.181ZM606.5 609.864H602.82V625H599.908V609.864H597.636V607.464H599.908V606.216C599.908 604.253 600.409 602.824 601.412 601.928C602.436 601.011 604.068 600.552 606.308 600.552V602.984C605.028 602.984 604.121 603.24 603.588 603.752C603.076 604.243 602.82 605.064 602.82 606.216V607.464H606.5V609.864ZM607.207 616.168C607.207 614.376 607.57 612.808 608.295 611.464C609.021 610.099 610.013 609.043 611.271 608.296C612.551 607.549 613.97 607.176 615.527 607.176C617.063 607.176 618.397 607.507 619.527 608.168C620.658 608.829 621.501 609.661 622.055 610.664V607.464H624.999V625H622.055V621.736C621.479 622.76 620.615 623.613 619.463 624.296C618.333 624.957 617.01 625.288 615.495 625.288C613.938 625.288 612.53 624.904 611.271 624.136C610.013 623.368 609.021 622.291 608.295 620.904C607.57 619.517 607.207 617.939 607.207 616.168ZM622.055 616.2C622.055 614.877 621.789 613.725 621.255 612.744C620.722 611.763 619.997 611.016 619.079 610.504C618.183 609.971 617.191 609.704 616.103 609.704C615.015 609.704 614.023 609.96 613.127 610.472C612.231 610.984 611.517 611.731 610.983 612.712C610.45 613.693 610.183 614.845 610.183 616.168C610.183 617.512 610.45 618.685 610.983 619.688C611.517 620.669 612.231 621.427 613.127 621.96C614.023 622.472 615.015 622.728 616.103 622.728C617.191 622.728 618.183 622.472 619.079 621.96C619.997 621.427 620.722 620.669 621.255 619.688C621.789 618.685 622.055 617.523 622.055 616.2ZM634.528 625.288C633.184 625.288 631.979 625.064 630.912 624.616C629.846 624.147 629.003 623.507 628.384 622.696C627.766 621.864 627.424 620.915 627.36 619.848H630.368C630.454 620.723 630.859 621.437 631.584 621.992C632.331 622.547 633.302 622.824 634.496 622.824C635.606 622.824 636.48 622.579 637.12 622.088C637.76 621.597 638.08 620.979 638.08 620.232C638.08 619.464 637.739 618.899 637.056 618.536C636.374 618.152 635.318 617.779 633.888 617.416C632.587 617.075 631.52 616.733 630.688 616.392C629.878 616.029 629.174 615.507 628.576 614.824C628 614.12 627.712 613.203 627.712 612.072C627.712 611.176 627.979 610.355 628.512 609.608C629.046 608.861 629.803 608.275 630.784 607.848C631.766 607.4 632.886 607.176 634.144 607.176C636.086 607.176 637.654 607.667 638.848 608.648C640.043 609.629 640.683 610.973 640.768 612.68H637.856C637.792 611.763 637.419 611.027 636.736 610.472C636.075 609.917 635.179 609.64 634.048 609.64C633.003 609.64 632.171 609.864 631.552 610.312C630.934 610.76 630.624 611.347 630.624 612.072C630.624 612.648 630.806 613.128 631.168 613.512C631.552 613.875 632.022 614.173 632.576 614.408C633.152 614.621 633.942 614.867 634.944 615.144C636.203 615.485 637.227 615.827 638.016 616.168C638.806 616.488 639.478 616.979 640.032 617.64C640.608 618.301 640.907 619.165 640.928 620.232C640.928 621.192 640.662 622.056 640.128 622.824C639.595 623.592 638.838 624.2 637.856 624.648C636.896 625.075 635.787 625.288 634.528 625.288ZM652.143 607.144C653.466 607.144 654.66 607.432 655.727 608.008C656.794 608.563 657.626 609.405 658.223 610.536C658.842 611.667 659.151 613.043 659.151 614.664V625H656.271V615.08C656.271 613.331 655.834 611.997 654.959 611.08C654.084 610.141 652.89 609.672 651.375 609.672C649.839 609.672 648.612 610.152 647.695 611.112C646.799 612.072 646.351 613.469 646.351 615.304V625H643.439V601.32H646.351V609.96C646.927 609.064 647.716 608.371 648.719 607.88C649.743 607.389 650.884 607.144 652.143 607.144ZM663.812 604.616C663.257 604.616 662.788 604.424 662.404 604.04C662.02 603.656 661.828 603.187 661.828 602.632C661.828 602.077 662.02 601.608 662.404 601.224C662.788 600.84 663.257 600.648 663.812 600.648C664.345 600.648 664.793 600.84 665.156 601.224C665.54 601.608 665.732 602.077 665.732 602.632C665.732 603.187 665.54 603.656 665.156 604.04C664.793 604.424 664.345 604.616 663.812 604.616ZM665.22 607.464V625H662.308V607.464H665.22ZM676.231 625.288C674.588 625.288 673.095 624.915 671.751 624.168C670.428 623.421 669.383 622.365 668.615 621C667.868 619.613 667.495 618.013 667.495 616.2C667.495 614.408 667.879 612.829 668.647 611.464C669.436 610.077 670.503 609.021 671.847 608.296C673.191 607.549 674.695 607.176 676.359 607.176C678.023 607.176 679.527 607.549 680.871 608.296C682.215 609.021 683.271 610.067 684.039 611.432C684.828 612.797 685.223 614.387 685.223 616.2C685.223 618.013 684.817 619.613 684.007 621C683.217 622.365 682.14 623.421 680.775 624.168C679.409 624.915 677.895 625.288 676.231 625.288ZM676.231 622.728C677.276 622.728 678.257 622.483 679.175 621.992C680.092 621.501 680.828 620.765 681.383 619.784C681.959 618.803 682.247 617.608 682.247 616.2C682.247 614.792 681.969 613.597 681.415 612.616C680.86 611.635 680.135 610.909 679.239 610.44C678.343 609.949 677.372 609.704 676.327 609.704C675.26 609.704 674.279 609.949 673.383 610.44C672.508 610.909 671.804 611.635 671.271 612.616C670.737 613.597 670.471 614.792 670.471 616.2C670.471 617.629 670.727 618.835 671.239 619.816C671.772 620.797 672.476 621.533 673.351 622.024C674.225 622.493 675.185 622.728 676.231 622.728ZM695.995 607.144C698.129 607.144 699.857 607.795 701.179 609.096C702.502 610.376 703.163 612.232 703.163 614.664V625H700.283V615.08C700.283 613.331 699.846 611.997 698.971 611.08C698.097 610.141 696.902 609.672 695.387 609.672C693.851 609.672 692.625 610.152 691.707 611.112C690.811 612.072 690.363 613.469 690.363 615.304V625H687.451V607.464H690.363V609.96C690.939 609.064 691.718 608.371 692.699 607.88C693.702 607.389 694.801 607.144 695.995 607.144ZM710.096 602.696L709.744 618.696H707.312L706.96 602.696H710.096ZM708.656 625.192C708.102 625.192 707.632 625 707.248 624.616C706.864 624.232 706.672 623.763 706.672 623.208C706.672 622.653 706.864 622.184 707.248 621.8C707.632 621.416 708.102 621.224 708.656 621.224C709.19 621.224 709.638 621.416 710 621.8C710.384 622.184 710.576 622.653 710.576 623.208C710.576 623.763 710.384 624.232 710 624.616C709.638 625 709.19 625.192 708.656 625.192Z" fill="#191818"/>
<path d="M129 710.593C177 668.193 275.667 678.926 319 689.593C305.4 713.593 186.667 713.593 129 710.593Z" fill="#EBD96B"/>
<path d="M1457 104L1463.51 123.355H1484.58L1467.53 135.318L1474.05 154.673L1457 142.711L1439.95 154.673L1446.47 135.318L1429.42 123.355H1450.49L1457 104Z" fill="#E7E6E6"/>
<path d="M824 762L830.511 781.355H851.581L834.535 793.318L841.046 812.673L824 800.711L806.954 812.673L813.465 793.318L796.419 781.355H817.489L824 762Z" fill="#E7E6E6"/>
<path d="M781 68L787.511 87.3554H808.581L791.535 99.3177L798.046 118.673L781 106.711L763.954 118.673L770.465 99.3177L753.419 87.3554H774.489L781 68Z" fill="#E7E6E6"/>
<path d="M1612 704L1618.51 723.355H1639.58L1622.53 735.318L1629.05 754.673L1612 742.711L1594.95 754.673L1601.47 735.318L1584.42 723.355H1605.49L1612 704Z" fill="#E7E6E6"/>
<defs>
<filter id="filter0_d_2_398" x="0" y="0" width="1728" height="860" filterUnits="userSpaceOnUse" color-interpolation-filters="sRGB">
<feFlood flood-opacity="0" result="BackgroundImageFix"/>
<feColorMatrix in="SourceAlpha" type="matrix" values="0 0 0 0 0 0 0 0 0 0 0 0 0 0 0 0 0 0 127 0" result="hardAlpha"/>
<feOffset dy="4"/>
<feGaussianBlur stdDeviation="2"/>
<feComposite in2="hardAlpha" operator="out"/>
<feColorMatrix type="matrix" values="0 0 0 0 0 0 0 0 0 0 0 0 0 0 0 0 0 0 0.25 0"/>
<feBlend mode="normal" in2="BackgroundImageFix" result="effect1_dropShadow_2_398"/>
<feBlend mode="normal" in="SourceGraphic" in2="effect1_dropShadow_2_398" result="shape"/>
</filter>
</defs>
</svg>
